<?xml version="1.0" encoding="UTF-8" standalone="no"?>
<!DOCTYPE svg PUBLIC "-//W3C//DTD SVG 1.1//EN" "http://www.w3.org/Graphics/SVG/1.1/DTD/svg11.dtd">
<svg width="100%" height="100%" viewBox="0 0 214 52" version="1.1" xmlns="http://www.w3.org/2000/svg" xmlns:xlink="http://www.w3.org/1999/xlink" xml:space="preserve" style="fill-rule:evenodd;clip-rule:evenodd;stroke-linejoin:round;stroke-miterlimit:1.41421;">
    <g>
        <g>
            <path d="M25.3,20.2C25,18.4 23.8,17.2 22.2,17.2C20.2,17.2 18.5,18.8 18.5,20.9C18.5,21.1 18.5,21.3 18.6,21.5C15.4,21.9 13,23.8 12.8,26.2C12.8,26.3 12.8,26.4 12.8,26.5C11.6,23.8 10.2,20.3 10.2,18.3C10.2,13.3 14.1,9.2 19.2,9.1C23.7,9.2 27.3,12.4 28,16.7C28,16.8 28,16.9 28,16.9C28.1,17.2 28.4,17.4 28.7,17.4C29.1,17.4 29.4,17.1 29.4,16.8L29.4,16.7L29.4,16.6C28.6,11.7 24.4,8 19.2,7.8L19.1,7.8C13.4,7.7 8.8,12.4 8.8,18.2C8.8,22 13.3,30.7 13.4,31C13.5,31.2 13.8,31.4 14,31.4L19.1,31.4C19.5,31.4 19.8,31.1 19.8,30.7C19.8,30.3 19.5,30 19.1,30L14.4,30C14.3,29.8 14.1,29.5 14,29.1L14,26.8C14,26.6 14,26.5 14,26.3C14.1,24.4 16.4,22.9 19.4,22.8C19.6,22.8 19.8,22.7 19.9,22.5C20,22.3 20,22.1 19.9,21.9C19.8,21.6 19.7,21.3 19.7,21C19.7,19.7 20.8,18.6 22.1,18.6C23.5,18.6 23.9,19.9 24,21C24,21.2 24.1,21.3 24.2,21.5C24.3,21.6 24.5,21.7 24.7,21.7L25.1,21.7C27.4,21.7 29.1,23.7 29.1,24.9C29.1,25.8 28,26.3 25.8,26.4C25.5,26.4 25.3,26.6 25.2,26.9C25.1,27.2 25,27.6 25,28C24.9,28.3 24.8,28.9 24.8,29C24.6,29.3 24.7,29.7 25,29.9C25.1,30 25.2,30 25.4,30C25.6,30 25.8,29.9 25.9,29.7C26.1,29.4 26.2,29 26.3,28.2C26.3,28 26.4,27.9 26.4,27.7C29.1,27.5 30.4,26.6 30.4,24.9C30.5,22.7 28.2,20.2 25.3,20.2Z" style="fill:rgb(41,171,226);fill-rule:nonzero;"/>
            <path d="M24.8,33.4L14.3,33.4C13.9,33.4 13.6,33.7 13.6,34.1C13.6,34.5 13.9,34.8 14.3,34.8L24.8,34.8C25.2,34.8 25.5,34.5 25.5,34.1C25.5,33.7 25.2,33.4 24.8,33.4Z" style="fill:rgb(254,254,255);fill-rule:nonzero;"/>
            <path d="M24.8,36.6L14.3,36.6C13.9,36.6 13.6,36.9 13.6,37.3C13.6,37.7 13.9,38 14.3,38L24.8,38C25.2,38 25.5,37.7 25.5,37.3C25.5,37 25.2,36.6 24.8,36.6Z" style="fill:rgb(254,254,255);fill-rule:nonzero;"/>
            <path d="M23.2,39.9L15.9,39.9C15.5,39.9 15.2,40.2 15.2,40.6C15.2,41 15.5,41.3 15.9,41.3L23.2,41.3C23.6,41.3 23.9,41 23.9,40.6C23.9,40.2 23.6,39.9 23.2,39.9Z" style="fill:rgb(254,254,255);fill-rule:nonzero;"/>
            <path d="M20.9,43.1L18.2,43.1C17.8,43.1 17.5,43.4 17.5,43.8C17.5,44.2 17.8,44.5 18.2,44.5L20.9,44.5C21.3,44.5 21.6,44.2 21.6,43.8C21.6,43.4 21.3,43.1 20.9,43.1Z" style="fill:rgb(254,254,255);fill-rule:nonzero;"/>
            <circle cx="25.9" cy="23.4" r="0.7" style="fill:rgb(65,65,66);"/>
        </g>
        <g>
            <g>
                <path d="M53.3,9.6L53.3,21.4C53.3,21.7 53.1,21.9 52.8,21.9L50.8,21.9C50.5,21.9 50.3,21.7 50.3,21.4L50.3,14L48,19.6C47.9,19.8 47.7,19.9 47.5,19.9L46.3,19.9C46,19.9 45.9,19.8 45.8,19.6L43.5,14.1L43.5,21.5C43.5,21.8 43.3,22 43,22L41,22C40.7,22 40.5,21.8 40.5,21.5L40.5,9.6C40.5,9.3 40.7,9.1 41,9.1L43.4,9.1C43.7,9.1 43.8,9.2 43.9,9.4L46.9,16.4L49.9,9.4C50,9.2 50.2,9.1 50.4,9.1L52.9,9.1C53.1,9.2 53.3,9.3 53.3,9.6Z" style="fill:rgb(216,216,217);fill-rule:nonzero;"/>
                <path d="M54.9,17.4C54.9,14.7 57,12.6 59.7,12.6C62.4,12.6 64.5,14.7 64.5,17.4C64.5,20.1 62.4,22.2 59.7,22.2C57,22.2 54.9,20.1 54.9,17.4ZM61.8,17.4C61.8,16.1 60.9,15.3 59.7,15.3C58.5,15.3 57.6,16.2 57.6,17.4C57.6,18.6 58.5,19.5 59.7,19.5C60.9,19.5 61.8,18.7 61.8,17.4Z" style="fill:rgb(216,216,217);fill-rule:nonzero;"/>
                <path d="M73.9,13.3L73.9,21.5C73.9,21.8 73.7,22 73.4,22L71.6,22C71.3,22 71.1,21.8 71.1,21.5L71.1,21.1C70.7,21.7 69.9,22.2 68.7,22.2C67,22.2 65.8,20.9 65.8,18.6L65.8,13.3C65.8,13 66,12.8 66.3,12.8L68.1,12.8C68.4,12.8 68.6,13 68.6,13.3L68.6,18.4C68.6,19.3 69.1,19.7 69.8,19.7C70.6,19.7 71.1,19.2 71.1,18.2L71.1,13.3C71.1,13 71.3,12.8 71.6,12.8L73.4,12.8C73.7,12.8 73.9,13 73.9,13.3Z" style="fill:rgb(216,216,217);fill-rule:nonzero;"/>
                <path d="M83.1,19.2C83.1,21.3 81.3,22.2 79.3,22.2C77.4,22.2 75.8,21.4 75.5,19.4C75.5,19.1 75.6,18.9 75.9,18.9L77.7,18.9C78,18.9 78.1,19 78.2,19.3C78.3,19.6 78.7,19.8 79.2,19.8C80,19.8 80.3,19.5 80.3,19.2C80.3,17.9 75.5,19.1 75.5,15.6C75.5,13.5 77.3,12.6 79.2,12.6C80.9,12.6 82.6,13.4 82.8,15.4C82.8,15.7 82.7,15.9 82.4,15.9L80.6,15.9C80.3,15.9 80.2,15.8 80.1,15.5C80,15.2 79.7,15 79.2,15C78.5,15 78.2,15.3 78.2,15.6C78.3,16.9 83.1,15.6 83.1,19.2Z" style="fill:rgb(216,216,217);fill-rule:nonzero;"/>
                <path d="M93.6,17.4C93.6,17.6 93.6,17.9 93.6,18.1C93.6,18.4 93.4,18.5 93.1,18.5L90.9,18.5L87,18.5C87.3,19.6 88.2,20 89.1,20C89.6,20 90.1,19.8 90.4,19.5C90.6,19.4 90.7,19.3 91,19.3L92.7,19.3C93,19.3 93.2,19.5 93.1,19.8C92.4,21.4 90.9,22.2 89,22.2C86,22.2 84,20.1 84,17.4C84,14.7 86,12.6 88.9,12.6C91.6,12.6 93.6,14.6 93.6,17.4ZM90.8,16.4C90.5,15.4 89.7,15 88.9,15C87.9,15 87.2,15.5 86.9,16.4L90.8,16.4Z" style="fill:rgb(216,216,217);fill-rule:nonzero;"/>
                <path d="M102.5,19.6L102.5,21.5C102.5,21.8 102.3,22 102,22L96.6,22L95.6,22C95.3,22 95.1,21.8 95.1,21.5L95.1,9.6C95.1,9.3 95.3,9.1 95.6,9.1L97.6,9.1C97.9,9.1 98.1,9.3 98.1,9.6L98.1,19.1L102,19.1C102.3,19.1 102.5,19.3 102.5,19.6Z" style="fill:rgb(41,171,226);fill-rule:nonzero;"/>
                <path d="M103.6,11.3L103.6,9.6C103.6,9.3 103.8,9.1 104.1,9.1L105.9,9.1C106.2,9.1 106.4,9.3 106.4,9.6L106.4,11.2C106.4,11.5 106.2,11.7 105.9,11.7L104.1,11.7C103.8,11.7 103.6,11.6 103.6,11.3ZM103.6,21.5L103.6,13.3C103.6,13 103.8,12.8 104.1,12.8L105.9,12.8C106.2,12.8 106.4,13 106.4,13.3L106.4,21.5C106.4,21.8 106.2,22 105.9,22L104.1,22C103.8,21.9 103.6,21.8 103.6,21.5Z" style="fill:rgb(41,171,226);fill-rule:nonzero;"/>
                <path d="M117.3,12.8C117.6,12.8 117.8,13 117.8,13.3L117.8,21.5C117.8,24.6 115.3,25.9 113.1,25.9C110.9,25.9 108.8,24.8 108.5,22.7C108.5,22.4 108.7,22.2 109,22.2L110.8,22.2C111.1,22.2 111.2,22.3 111.3,22.6C111.5,23.1 112.1,23.5 113.1,23.5C114.3,23.5 115.1,22.8 115.1,21.6L115.1,20.8C114.5,21.5 113.6,22 112.3,22C109.9,22 107.9,19.9 107.9,17.4C107.9,14.9 109.9,12.8 112.3,12.8C113.6,12.8 114.5,13.2 115.1,14L115.1,13.5C115.1,13.2 115.3,13 115.6,13L117.3,12.8ZM115.1,17.2C115.1,15.9 114.2,15.1 112.9,15.1C111.6,15.1 110.7,16 110.7,17.2C110.7,18.5 111.6,19.3 112.9,19.3C114.2,19.3 115.1,18.4 115.1,17.2Z" style="fill:rgb(41,171,226);fill-rule:nonzero;"/>
                <path d="M127.7,16.2L127.7,21.5C127.7,21.8 127.5,22 127.2,22L125.4,22C125.1,22 124.9,21.8 124.9,21.5L124.9,16.4C124.9,15.5 124.4,15.1 123.7,15.1C122.9,15.1 122.4,15.6 122.4,16.6L122.4,21.5C122.4,21.8 122.2,22 121.9,22L120.1,22C119.8,22 119.6,21.8 119.6,21.5L119.6,9.6C119.6,9.3 119.8,9.1 120.1,9.1L121.9,9.1C122.2,9.1 122.4,9.3 122.4,9.6L122.4,13.6C122.8,13 123.6,12.5 124.8,12.5C126.5,12.6 127.7,13.9 127.7,16.2Z" style="fill:rgb(41,171,226);fill-rule:nonzero;"/>
                <path d="M134.4,13.3L134.4,15C134.4,15.3 134.2,15.5 133.9,15.5L132.9,15.5L132.9,21.5C132.9,21.8 132.7,22 132.4,22L130.6,22C130.3,22 130.1,21.8 130.1,21.5L130.1,15.5L129.1,15.5C128.8,15.5 128.6,15.3 128.6,15L128.6,13.3C128.6,13 128.8,12.8 129.1,12.8L130.1,12.8L130.1,10.3C130.1,10 130.3,9.8 130.6,9.8L132.4,9.8C132.7,9.8 132.9,10 132.9,10.3L132.9,12.8L133.9,12.8C134.3,12.8 134.4,13 134.4,13.3Z" style="fill:rgb(41,171,226);fill-rule:nonzero;"/>
            </g>
            <g>
                <path d="M40.5,41.9L40.5,28.7C40.5,28.5 40.6,28.3 40.7,28.1C40.9,27.9 41.1,27.9 41.3,27.9L41.5,27.9C41.8,27.9 42.1,28.1 42.3,28.4L51.2,39.7L51.2,28.7C51.2,28.5 51.3,28.3 51.4,28.1C51.6,27.9 51.8,27.9 52,27.9C52.2,27.9 52.4,28 52.6,28.1C52.8,28.3 52.8,28.5 52.8,28.7L52.8,41.9C52.8,42.1 52.7,42.3 52.6,42.5C52.5,42.6 52.3,42.7 52.1,42.7L52,42.7C51.7,42.7 51.4,42.5 51.1,42.2L42,30.6L42,41.9C42,42.1 41.9,42.3 41.8,42.5C41.6,42.7 41.4,42.7 41.2,42.7C41,42.7 40.8,42.6 40.6,42.5C40.6,42.3 40.5,42.1 40.5,41.9Z" style="fill:white;fill-rule:nonzero;"/>
                <path d="M65.5,41.2C64.4,42.3 63,42.8 61.4,42.8C59.9,42.8 58.6,42.3 57.6,41.2C56.6,40.1 56,38.8 56,37.2C56,35.6 56.5,34.3 57.5,33.2C58.5,32.1 59.7,31.6 61.2,31.6C62.7,31.6 63.9,32.1 64.9,33.2C65.8,34.3 66.3,35.6 66.3,37.1C66.3,37.3 66.2,37.5 66.1,37.6C66,37.7 65.8,37.8 65.6,37.8L57.8,37.8C57.9,38.9 58.3,39.8 59,40.5C59.7,41.1 60.6,41.5 61.6,41.5C62.8,41.5 63.8,41.1 64.7,40.2C64.9,40.1 65,40 65.2,40C65.4,40 65.6,40.1 65.7,40.2C65.8,40.3 65.9,40.5 65.9,40.7C65.8,40.9 65.7,41.1 65.5,41.2ZM57.7,36.6L64.7,36.6C64.6,35.5 64.3,34.7 63.7,34C63.1,33.3 62.3,33 61.3,33C60.4,33 59.6,33.3 58.9,34C58.2,34.7 57.8,35.5 57.7,36.6Z" style="fill:white;fill-rule:nonzero;"/>
                <path d="M78.3,32.5L78.3,41.9C78.3,42.1 78.2,42.3 78.1,42.5C77.9,42.7 77.8,42.7 77.5,42.7C77.3,42.7 77.1,42.6 76.9,42.5C76.7,42.3 76.7,42.1 76.7,41.9L76.7,40.7C75.8,42.1 74.6,42.8 73,42.8C71.7,42.8 70.7,42.4 70,41.6C69.3,40.8 68.9,39.8 68.9,38.5L68.9,32.5C68.9,32.3 69,32.1 69.1,31.9C69.3,31.7 69.4,31.7 69.7,31.7C69.9,31.7 70.1,31.8 70.3,31.9C70.5,32.1 70.5,32.3 70.5,32.5L70.5,38.1C70.5,39.1 70.8,39.9 71.3,40.5C71.8,41.1 72.6,41.4 73.5,41.4C74.4,41.4 75.2,41.1 75.8,40.5C76.4,39.9 76.7,39.1 76.7,38.1L76.7,32.6C76.7,32.4 76.8,32.2 76.9,32C77,31.8 77.2,31.8 77.5,31.8C77.7,31.8 77.9,31.9 78.1,32C78.2,32.1 78.3,32.3 78.3,32.5Z" style="fill:white;fill-rule:nonzero;"/>
                <path d="M81.9,41.9L81.9,32.5C81.9,32.3 82,32.1 82.1,31.9C82.3,31.7 82.4,31.7 82.7,31.7C82.9,31.7 83.1,31.8 83.3,31.9C83.5,32 83.5,32.2 83.5,32.5L83.5,34.5C83.9,33.6 84.4,32.9 85.1,32.4C85.8,31.9 86.5,31.6 87.2,31.6C87.4,31.6 87.6,31.7 87.8,31.8C87.9,32 88,32.1 88,32.4C88,32.6 87.9,32.8 87.8,33C87.7,33.1 87.5,33.2 87.3,33.3C86.2,33.4 85.3,33.9 84.6,34.8C83.9,35.6 83.5,36.8 83.5,38.3L83.5,42C83.5,42.2 83.4,42.4 83.3,42.6C83.1,42.8 83,42.8 82.7,42.8C82.5,42.8 82.3,42.7 82.1,42.6C82,42.3 81.9,42.1 81.9,41.9Z" style="fill:white;fill-rule:nonzero;"/>
                <path d="M98.9,41.2C97.8,42.3 96.5,42.9 94.9,42.9C93.3,42.9 92,42.4 90.9,41.3C89.8,40.2 89.3,38.9 89.3,37.3C89.3,35.8 89.8,34.4 90.9,33.3C92,32.2 93.3,31.6 94.9,31.6C96.5,31.6 97.8,32.1 98.9,33.2C100,34.3 100.5,35.6 100.5,37.2C100.5,38.7 100,40.1 98.9,41.2ZM94.9,41.4C96.1,41.4 97,41 97.7,40.2C98.4,39.4 98.8,38.4 98.8,37.3C98.8,36.1 98.4,35.1 97.6,34.3C96.9,33.4 96,33 94.9,33C93.8,33 92.8,33.4 92.1,34.2C91.4,35 91,36 91,37.2C91,38.4 91.4,39.4 92.1,40.2C92.8,41 93.8,41.4 94.9,41.4Z" style="fill:white;fill-rule:nonzero;"/>
                <path d="M103.4,41.9L103.4,32.5C103.4,32.3 103.5,32.1 103.6,31.9C103.8,31.7 103.9,31.7 104.2,31.7C104.4,31.7 104.6,31.8 104.8,31.9C105,32.1 105,32.2 105,32.5L105,33.7C105.8,32.3 107.1,31.6 108.7,31.6C110,31.6 111,32 111.7,32.8C112.4,33.6 112.8,34.6 112.8,35.9L112.8,41.9C112.8,42.1 112.7,42.3 112.6,42.5C112.4,42.7 112.3,42.7 112,42.7C111.8,42.7 111.6,42.6 111.4,42.5C111.2,42.3 111.2,42.1 111.2,41.9L111.2,36.3C111.2,35.3 110.9,34.5 110.4,33.9C109.9,33.3 109.1,33 108.2,33C107.3,33 106.5,33.3 105.9,33.9C105.3,34.5 105,35.3 105,36.3L105,41.8C105,42 104.9,42.2 104.8,42.4C104.6,42.6 104.5,42.6 104.2,42.6C104,42.6 103.8,42.5 103.6,42.4C103.5,42.3 103.4,42.1 103.4,41.9Z" style="fill:white;fill-rule:nonzero;"/>
                <path d="M122.8,41.7L122.8,28.8C122.8,28.6 122.9,28.4 123,28.2C123.2,28 123.4,27.9 123.6,27.9L129,27.9C130.7,27.9 131.9,28.3 132.8,29.2C133.4,29.9 133.7,30.6 133.7,31.5C133.7,33.1 132.9,34.2 131.4,34.9C133.5,35.5 134.5,36.7 134.5,38.4C134.5,39.6 134,40.6 133.1,41.3C132.1,42 130.9,42.4 129.2,42.4L123.5,42.4C123.3,42.4 123.1,42.3 122.9,42.1C122.9,42.2 122.8,42 122.8,41.7ZM124.4,34.5L128.7,34.5C129.7,34.5 130.5,34.3 131.1,33.8C131.7,33.3 132,32.7 132,31.9C132,31.2 131.7,30.6 131.2,30.2C130.7,29.8 129.8,29.6 128.8,29.6L124.4,29.6L124.4,34.5ZM124.4,41.1L129.3,41.1C130.4,41.1 131.3,40.9 131.9,40.4C132.5,39.9 132.9,39.3 132.9,38.5C132.9,37.7 132.6,37.1 131.9,36.6C131.2,36.2 130.3,36 129,36L124.4,36L124.4,41.1Z" style="fill:white;fill-rule:nonzero;"/>
                <path d="M137.6,41.9L137.6,32.5C137.6,32.3 137.7,32.1 137.8,31.9C138,31.7 138.1,31.7 138.4,31.7C138.6,31.7 138.8,31.8 139,31.9C139.2,32 139.2,32.2 139.2,32.5L139.2,34.5C139.6,33.6 140.1,32.9 140.8,32.4C141.5,31.9 142.2,31.6 142.9,31.6C143.1,31.6 143.3,31.7 143.5,31.8C143.6,32 143.7,32.1 143.7,32.4C143.7,32.6 143.6,32.8 143.5,33C143.4,33.1 143.2,33.2 143,33.3C141.9,33.4 141,33.9 140.3,34.8C139.6,35.6 139.2,36.8 139.2,38.3L139.2,42C139.2,42.2 139.1,42.4 139,42.6C138.8,42.8 138.7,42.8 138.4,42.8C138.2,42.8 138,42.7 137.8,42.6C137.7,42.3 137.6,42.1 137.6,41.9Z" style="fill:white;fill-rule:nonzero;"/>
                <path d="M154.6,41.2C153.5,42.3 152.2,42.9 150.6,42.9C149,42.9 147.7,42.4 146.6,41.3C145.5,40.2 145,38.9 145,37.3C145,35.8 145.5,34.4 146.6,33.3C147.7,32.2 149,31.6 150.6,31.6C152.2,31.6 153.5,32.1 154.6,33.2C155.7,34.3 156.2,35.6 156.2,37.2C156.2,38.7 155.6,40.1 154.6,41.2ZM150.6,41.4C151.8,41.4 152.7,41 153.4,40.2C154.1,39.4 154.5,38.4 154.5,37.3C154.5,36.1 154.1,35.1 153.3,34.3C152.5,33.5 151.6,33.1 150.5,33.1C149.4,33.1 148.4,33.5 147.7,34.3C147,35.1 146.6,36.1 146.6,37.3C146.6,38.5 147,39.5 147.7,40.3C148.5,41 149.4,41.4 150.6,41.4Z" style="fill:white;fill-rule:nonzero;"/>
                <path d="M162.2,42.7C161.8,42.7 161.5,42.5 161.3,42L158,32.9C157.9,32.7 157.9,32.5 157.9,32.5C157.9,32.3 158,32.1 158.1,32C158.3,31.8 158.4,31.8 158.7,31.8C159.1,31.8 159.4,32 159.5,32.5L162.2,40.6L164.9,32.5C165,32.1 165.3,31.9 165.7,31.9L165.8,31.9C166.2,31.9 166.5,32.1 166.6,32.5L169.3,40.6L172.1,32.5C172.2,32.1 172.5,31.9 172.9,31.9C173.1,31.9 173.3,32 173.5,32.1C173.7,32.2 173.7,32.4 173.7,32.6C173.7,32.7 173.7,32.8 173.6,33L170.3,42.1C170.1,42.6 169.8,42.8 169.4,42.8L169.3,42.8C168.9,42.8 168.6,42.6 168.4,42.1L165.7,34.2L163,42.1C162.9,42.5 162.6,42.7 162.2,42.7Z" style="fill:white;fill-rule:nonzero;"/>
                <path d="M179.9,42.8C178.4,42.8 177,42.3 175.7,41.4C175.5,41.3 175.4,41.1 175.4,40.8C175.4,40.6 175.5,40.4 175.6,40.3C175.7,40.2 175.9,40.1 176.1,40.1C176.3,40.1 176.4,40.1 176.5,40.2C177.6,41 178.8,41.3 179.9,41.3C180.6,41.3 181.1,41.1 181.5,40.8C181.9,40.5 182.1,40.1 182.1,39.6C182.1,39.1 181.9,38.7 181.4,38.5C180.9,38.2 180.3,38 179.4,37.7C178.9,37.5 178.4,37.4 178.1,37.3C177.8,37.2 177.4,37 177,36.8C176.6,36.6 176.3,36.3 176.1,35.9C175.9,35.6 175.8,35.1 175.8,34.7C175.8,33.8 176.1,33 176.8,32.5C177.5,31.9 178.4,31.6 179.4,31.6C180.6,31.6 181.7,31.9 182.8,32.5C183.1,32.7 183.2,32.9 183.2,33.2C183.2,33.4 183.1,33.6 183,33.7C182.9,33.8 182.7,33.9 182.5,33.9C182.4,33.9 182.3,33.9 182.1,33.8C181.1,33.2 180.2,33 179.3,33C178.7,33 178.2,33.1 177.8,33.4C177.4,33.7 177.2,34.1 177.2,34.5C177.2,34.7 177.3,34.9 177.4,35C177.5,35.2 177.6,35.3 177.8,35.4C177.9,35.5 178.2,35.6 178.5,35.8C178.8,35.9 179,36 179.2,36.1C179.4,36.2 179.7,36.2 180.1,36.4C180.5,36.5 180.8,36.6 181.1,36.7C181.4,36.8 181.7,36.9 182,37.1C182.3,37.3 182.6,37.5 182.8,37.7C183,37.9 183.2,38.2 183.3,38.5C183.4,38.8 183.5,39.1 183.5,39.5C183.5,40.5 183.1,41.3 182.4,41.9C181.9,42.5 181,42.8 179.9,42.8Z" style="fill:white;fill-rule:nonzero;"/>
                <path d="M195.5,41.2C194.4,42.3 193,42.8 191.4,42.8C189.9,42.8 188.6,42.3 187.6,41.2C186.6,40.1 186,38.8 186,37.2C186,35.6 186.5,34.3 187.5,33.2C188.5,32.1 189.7,31.6 191.2,31.6C192.7,31.6 193.9,32.1 194.9,33.2C195.8,34.3 196.3,35.6 196.3,37.1C196.3,37.3 196.2,37.5 196.1,37.6C196,37.7 195.8,37.8 195.6,37.8L187.8,37.8C187.9,38.9 188.3,39.8 189,40.5C189.7,41.2 190.6,41.5 191.6,41.5C192.8,41.5 193.8,41.1 194.7,40.2C194.9,40.1 195,40 195.2,40C195.4,40 195.6,40.1 195.7,40.2C195.8,40.3 195.9,40.5 195.9,40.7C195.7,40.9 195.6,41.1 195.5,41.2ZM187.6,36.6L194.6,36.6C194.5,35.5 194.2,34.7 193.6,34C193,33.3 192.2,33 191.2,33C190.3,33 189.5,33.3 188.8,34C188.1,34.7 187.7,35.5 187.6,36.6Z" style="fill:white;fill-rule:nonzero;"/>
                <path d="M199,41.9L199,32.5C199,32.3 199.1,32.1 199.2,31.9C199.4,31.7 199.5,31.7 199.8,31.7C200,31.7 200.2,31.8 200.4,31.9C200.6,32 200.6,32.2 200.6,32.5L200.6,34.5C201,33.6 201.5,32.9 202.2,32.4C202.9,31.9 203.6,31.6 204.3,31.6C204.5,31.6 204.7,31.7 204.9,31.8C205,32 205.1,32.1 205.1,32.4C205.1,32.6 205,32.8 204.9,33C204.8,33.1 204.6,33.2 204.4,33.3C203.3,33.4 202.4,33.9 201.7,34.8C201,35.6 200.6,36.8 200.6,38.3L200.6,42C200.6,42.2 200.5,42.4 200.4,42.6C200.2,42.8 200.1,42.8 199.8,42.8C199.6,42.8 199.4,42.7 199.2,42.6C199.1,42.3 199,42.1 199,41.9Z" style="fill:white;fill-rule:nonzero;"/>
            </g>
        </g>
    </g>
</svg>
